<?xml version="1.0" encoding="UTF-8"?>
<svg xmlns="http://www.w3.org/2000/svg" class="svg-standalone-icon" width="100%" viewBox="65.00000000000003 200.83421712736327 67.7611175389168 68.33156574527345"><g data-paper-data="{&quot;fillRule&quot;:&quot;evenodd&quot;,&quot;fillRuleOriginal&quot;:&quot;evenodd&quot;,&quot;isIcon&quot;:true,&quot;iconStyle&quot;:&quot;standalone&quot;,&quot;selectedEffects&quot;:{&quot;container&quot;:&quot;&quot;,&quot;transformation&quot;:&quot;rotate0;translate50&quot;,&quot;pattern&quot;:&quot;&quot;},&quot;bounds&quot;:{&quot;x&quot;:65.00000000000003,&quot;y&quot;:200.83421712736327,&quot;width&quot;:67.7611175389168,&quot;height&quot;:68.33156574527345},&quot;iconType&quot;:&quot;icon&quot;,&quot;isDetailed&quot;:false,&quot;source&quot;:&quot;ai&quot;,&quot;rawIconId&quot;:&quot;KPZF_ILi1vxwpu7ph8FQZ1F9BetT-e2IvaGQoU5hgO&quot;,&quot;suitableAsStandaloneIcon&quot;:true}" fill-rule="evenodd" fill="#26d07c"><path d="M75.60283,210.21084c5.40929,-5.13832 11.86302,-8.26685 18.92452,-9.17394c1.84495,-0.23702 5.97887,-0.27385 7.8317,-0.06964c5.99996,0.6609 12.24429,3.20362 17.12479,6.97341c1.54774,1.19556 3.52655,3.01777 3.84619,3.54182c0.50168,0.82269 0.2505,2.35227 -0.46991,2.86069c-2.11601,1.49382 -3.88168,2.62783 -5.35748,3.4406l-1.58083,0.87109l0.39784,1.14629c0.47498,1.36903 0.42854,1.82293 -0.25331,2.47195c-0.41239,0.39264 -0.5971,0.46578 -1.17605,0.46578c-0.93409,0 -1.755,-0.59403 -1.96934,-1.42509c-0.04965,-0.19258 -0.1771,-0.5584 -0.28347,-0.81264l-0.19312,-0.46244l-0.90766,0.28427c-2.54962,0.79823 -5.60572,1.42335 -8.2876,1.69548c-0.90646,0.09209 -1.8575,0.19792 -2.11374,0.23529l-0.46578,0.0682v5.92109c0,5.78763 -0.00667,5.92976 -0.29922,6.30158c-0.6322,0.8037 -1.57936,1.01243 -2.37986,0.52437c-0.99655,-0.60751 -0.97039,-0.43108 -1.01683,-6.90602l-0.04191,-5.83821l-0.60297,-0.07647c-0.33165,-0.04217 -1.44137,-0.17817 -2.46594,-0.30242c-2.3924,-0.28988 -5.09564,-0.81758 -7.03068,-1.37223c-0.84093,-0.24103 -1.5799,-0.3845 -1.64209,-0.3187c-0.21714,0.22902 -1.13561,3.14299 -1.64116,5.20668c-0.47098,1.92249 -0.96785,4.90172 -1.11719,6.69929l-0.06246,0.75231l3.88395,0.0008c2.13616,0.00053 4.11324,0.06459 4.3935,0.1424c0.2804,0.07794 0.69946,0.33952 0.93155,0.58175c0.39157,0.40865 0.42373,0.52557 0.45029,1.64036c0.03256,1.3697 0.29695,2.03967 1.11973,2.83883c1.03044,1.00055 3.28846,1.89874 5.84875,2.32581c1.63796,0.27346 5.10965,0.42587 6.57171,0.28881l1.10171,-0.1033l0.09449,-0.81264c0.67477,-5.80618 4.16636,-11.54416 8.54131,-14.03626c2.23773,-1.27481 5.14355,-1.56348 7.3718,-0.7323c1.17445,0.43802 2.60194,1.86137 3.07452,3.06518c0.47992,1.22223 0.49047,3.45702 0.02269,4.81844c-0.86549,2.51933 -3.14445,5.14408 -6.28277,7.23567c-2.00604,1.337 -5.32145,2.87179 -7.39222,3.42205c-0.92341,0.24543 -0.96118,0.27239 -0.8775,0.62993c0.15842,0.67597 0.8117,1.74139 1.38638,2.26041c2.05462,1.8563 5.50643,1.86657 9.16604,0.02749c2.95253,-1.48368 5.29409,-3.53055 7.41077,-6.47815c0.65275,-0.90886 1.30671,-1.11826 2.25935,-0.72349c1.17245,0.48593 1.63208,1.61687 1.08917,2.67908c-0.4252,0.83172 -2.0007,2.73099 -3.31088,3.99192c-1.5799,1.52011 -3.2368,2.76276 -4.88224,3.66121c-4.60757,2.51612 -9.27787,2.94373 -12.68257,1.1615c-1.36463,-0.71428 -3.06451,-2.48596 -3.79547,-3.95536c-0.32524,-0.65342 -0.6322,-1.4064 -0.68211,-1.67346l-0.09115,-0.48539l-2.3146,0.08168c-6.31399,0.22288 -11.69443,-1.23757 -14.35549,-3.89676c-1.09544,-1.09464 -1.67305,-2.0402 -1.98055,-3.24241l-0.19779,-0.773l-2.95841,-0.0387l-2.95867,-0.03884l0.08608,1.04192c0.15588,1.89059 0.63901,5.02584 1.055,6.84543c0.54051,2.36411 1.54854,5.44544 1.78169,5.44544c0.10023,0 0.66103,-0.16349 1.24625,-0.36341c3.9982,-1.36556 8.80262,-2.0402 13.38524,-1.87965c3.04636,0.10663 3.25602,0.14467 3.80174,0.69039c0.76966,0.76966 0.74244,1.84041 -0.0674,2.65025c-0.46858,0.46858 -0.50501,0.47872 -1.71122,0.47872h-1.23237v12.34318l0.32244,-0.08969c0.68131,-0.18951 2.36852,-1.11079 3.26016,-1.78009c2.08985,-1.56922 4.48799,-4.39297 6.0009,-7.06617c0.61659,-1.08943 1.03151,-1.4012 1.86404,-1.40053c1.30484,0.00107 2.22838,1.04353 1.89767,2.14217c-0.42013,1.39572 -2.75875,4.83286 -4.64241,6.82328l-1.28175,1.35435l1.2692,-0.44002c3.11456,-1.08023 7.11328,-3.4757 9.70228,-5.81218c2.15058,-1.94118 2.25868,-1.98949 3.34384,-1.49689c0.71094,0.32284 1.04846,0.88818 1.04846,1.75647c0,0.58335 -0.06286,0.67691 -1.18459,1.76634c-2.72726,2.64865 -6.94326,5.37056 -10.49436,6.77523c-4.64214,1.83601 -8.45469,2.59927 -13.01008,2.60474c-6.29398,0.00734 -11.79747,-1.52411 -17.40719,-4.8438c-2.34836,-1.38972 -4.09981,-2.77437 -6.26981,-4.95697c-2.912,-2.92891 -4.8573,-5.67646 -6.59854,-9.31978c-2.03172,-4.2511 -2.95357,-7.67849 -3.37473,-12.54644c-0.85837,-9.92449 3.12824,-20.29713 10.48772,-27.2879zM113.73879,213.66581c-1.35382,-2.53355 -2.47595,-4.1272 -4.58635,-6.51272l-1.04753,-1.18408l0.90379,0.34091c3.5132,1.32481 6.80046,3.23873 9.36329,5.45143l0.8125,0.70145l-0.85868,0.54597c-1.0881,0.69171 -3.51574,1.99182 -3.7194,1.99182c-0.08501,0 -0.47525,-0.6007 -0.86762,-1.33479zM89.13556,212.4929c2.16392,-3.02263 4.78027,-5.32819 7.0918,-6.24976c0.3546,-0.14129 0.66103,-0.25994 0.68065,-0.26368c0.01962,-0.00372 0.03577,2.7988 0.03577,6.22783v6.23457l-1.03885,-0.08541c-2.90449,-0.23903 -8.6326,-1.36263 -9.04418,-1.77422c-0.17163,-0.17163 1.07649,-2.41573 2.27483,-4.08934zM79.47119,211.67078c2.15885,-1.96178 6.245,-4.39631 8.94623,-5.33006c0.55172,-0.19058 1.06541,-0.35151 1.14162,-0.35739c0.07607,-0.00587 -0.18898,0.32802 -0.58883,0.74173c-1.7869,1.84871 -4.19905,5.22229 -5.2255,7.30831c-0.26185,0.53188 -0.52877,0.96723 -0.59323,0.96723c-0.18684,0 -1.48941,-0.67984 -3.10708,-1.6221l-1.49449,-0.87041zM100.74125,218.3682l-0.03737,-6.12607c-0.0331,-5.43553 -0.01241,-6.1261 0.18324,-6.1261c0.28387,0 1.81693,0.77181 2.64851,1.33341c1.19941,0.81007 2.78971,2.23119 3.7258,3.32929c1.61153,1.89085 3.90237,5.54352 3.63492,5.79629c-0.51863,0.4906 -6.63443,1.6553 -9.22369,1.7566zM68.78432,232.01942c0.61533,-5.56235 2.88865,-11.27137 6.27769,-15.76483c0.40125,-0.53197 0.7777,-0.96732 0.83659,-0.96732c0.05889,0 0.69056,0.37729 1.40348,0.8384c0.71306,0.46124 1.97706,1.18659 2.80879,1.6122c1.27401,0.65168 1.50143,0.81878 1.44297,1.06021c-0.03817,0.15762 -0.39064,1.2983 -0.78328,2.53467c-1.05807,3.33183 -1.75193,6.85851 -1.9963,10.1475l-0.10116,1.36129l-4.99409,0.03764l-4.99386,0.03777zM111.30448,238.01858c0.94557,-3.82056 3.52455,-7.43759 6.29064,-8.82197c0.96852,-0.48486 1.30604,-0.58242 2.01378,-0.58242c0.96812,0 1.49836,0.22528 2.03713,0.86562c0.30989,0.36835 0.37529,0.59003 0.37529,1.27201c0,1.16697 -0.61872,2.34222 -1.98815,3.77545c-1.38718,1.45191 -2.58912,2.34503 -4.46037,3.31421c-1.48167,0.76726 -4.41299,1.88379 -4.5602,1.73658c-0.04137,-0.04137 0.08995,-0.74311 0.29188,-1.55948zM69.43017,241.84408c-0.2985,-1.3693 -0.70804,-4.08962 -0.71364,-4.7393l-0.00287,-0.32244h4.94387c4.61226,0 4.94404,0.01668 4.94537,0.25077c0.00093,0.13787 0.09622,1.14322 0.21193,2.23412c0.44642,4.20573 1.11306,7.39195 2.21584,10.58965c0.31897,0.92528 0.58002,1.73805 0.58002,1.80625c0,0.0682 -0.59657,0.46204 -1.32553,0.87523c-0.72896,0.41292 -1.96593,1.17498 -2.7485,1.69347l-1.42298,0.94276l-0.44079,-0.50982c-2.75695,-3.18943 -5.26743,-8.34512 -6.24273,-12.82071zM86.73542,253.67504c0.36608,-0.34286 4.86862,-1.44991 7.19149,-1.76808c0.75285,-0.10316 1.73965,-0.19525 2.19288,-0.20459l0.82398,-0.01682l0.0016,5.4812c0.00093,3.01473 0.03537,5.70688 0.07687,5.98275c0.14133,0.94196 -0.04938,0.97266 -1.53292,0.2461c-2.14951,-1.05247 -4.37135,-3.00699 -6.31172,-5.55234c-0.98533,-1.29269 -2.58939,-4.03036 -2.44218,-4.16823zM78.88797,257.98153c0,-0.11731 0.94249,-0.76019 2.83869,-1.9361c0.68492,-0.42494 1.31258,-0.77353 1.39466,-0.775c0.08221,-0.0012 0.32324,0.35233 0.53584,0.78581c1.06408,2.16979 2.81761,4.61478 4.78881,6.67767c0.77247,0.80837 1.27548,1.42015 1.11786,1.35956c-0.15762,-0.06059 -0.83466,-0.30442 -1.50463,-0.54172c-1.45311,-0.51489 -3.80361,-1.69494 -5.51043,-2.76649c-1.30484,-0.81918 -3.66081,-2.62356 -3.66081,-2.80373z" data-paper-data="{&quot;isPathIcon&quot;:true}"></path></g></svg>
