<?xml version="1.0" encoding="UTF-8"?>
<svg xmlns:mydata="http://www.w3.org/2000/svg" mydata:contrastcolor="ffffff" mydata:template="Default" mydata:presentation="2.5" mydata:layouttype="undefined" mydata:specialfontid="undefined" mydata:id1="251" mydata:id2="252" mydata:companyname="Climaedu" mydata:companytagline="" version="1.1" xmlns="http://www.w3.org/2000/svg" xmlns:xlink="http://www.w3.org/1999/xlink" viewBox="65 200.83421712736327 420 68.33156574527345"><g fill="#26d07c" fill-rule="none" stroke="none" stroke-width="1" stroke-linecap="butt" stroke-linejoin="miter" stroke-miterlimit="10" stroke-dasharray="" stroke-dashoffset="0" font-family="none" font-weight="none" font-size="none" text-anchor="none" style="mix-blend-mode: normal"><g data-paper-data="{&quot;isGlobalGroup&quot;:true,&quot;bounds&quot;:{&quot;x&quot;:65.00000000000003,&quot;y&quot;:200.83421712736327,&quot;width&quot;:420,&quot;height&quot;:68.33156574527345}}"><g data-paper-data="{&quot;isPrimaryText&quot;:true}" fill-rule="nonzero"><path d="M173.15976,242.34165c0.78868,1.2526 1.41498,2.65598 1.87891,4.21014c0.46393,1.55416 0.69589,3.32868 0.69589,5.32356c-2.13406,0.83507 -4.08256,1.36859 -5.84548,1.60055c-1.76292,0.23196 -3.52585,0.34795 -5.28877,0.34795c-2.96913,0 -5.59032,-0.44073 -7.86357,-1.32219c-2.27324,-0.88146 -4.18694,-2.14566 -5.7411,-3.7926c-1.55416,-1.64694 -2.72557,-3.61863 -3.51425,-5.91507c-0.78868,-2.29644 -1.18301,-4.88283 -1.18301,-7.75918c0,-2.78356 0.39434,-5.33516 1.18301,-7.6548c0.78868,-2.31964 1.94849,-4.30292 3.47945,-5.94987c1.53096,-1.64694 3.40986,-2.93434 5.63672,-3.86219c2.22685,-0.92785 4.77845,-1.39178 7.6548,-1.39178c0.97425,0 1.9021,0.0232 2.78356,0.06959c0.88146,0.04639 1.75133,0.13918 2.60959,0.27836c0.85827,0.13918 1.73973,0.34795 2.64438,0.6263c0.90466,0.27836 1.9137,0.6263 3.02712,1.04384c0.09279,1.57735 -0.04639,3.14311 -0.41753,4.69726c-0.37114,1.55416 -0.95105,3.07352 -1.73973,4.55808c-0.78868,-0.27836 -1.49617,-0.49872 -2.12247,-0.6611c-0.6263,-0.16237 -1.21781,-0.28995 -1.77452,-0.38274c-0.55671,-0.09279 -1.10183,-0.15078 -1.63534,-0.17397c-0.53352,-0.0232 -1.10183,-0.03479 -1.70493,-0.03479c-2.22685,0 -4.07096,0.6611 -5.53233,1.98329c-1.46137,1.32219 -2.19206,3.60703 -2.19206,6.85452c0,1.71653 0.22037,3.14311 0.6611,4.27973c0.44073,1.13662 1.02064,2.02968 1.73973,2.67918c0.71909,0.6495 1.55416,1.11343 2.50521,1.39178c0.95105,0.27836 1.96009,0.41753 3.02712,0.41753c1.34539,0 2.5168,-0.11598 3.51425,-0.34795c0.99744,-0.23196 2.16886,-0.60311 3.51425,-1.11343z" data-paper-data="{&quot;glyphName&quot;:&quot;c&quot;,&quot;glyphIndex&quot;:0,&quot;firstGlyphOfWord&quot;:true,&quot;word&quot;:1}"></path><path d="M188.13301,217.01122c1.02064,-0.23196 2.02968,-0.39434 3.02712,-0.48712c0.99744,-0.09279 1.96009,-0.13918 2.88795,-0.13918c0.88146,0 1.83251,0.04639 2.85315,0.13918c1.02064,0.09279 2.01808,0.25516 2.99233,0.48712l-0.06959,26.16549h13.15234c0.23196,0.92785 0.38274,1.78612 0.45233,2.5748c0.06959,0.78868 0.10438,1.55416 0.10438,2.29644c0,0.74228 -0.03479,1.51936 -0.10438,2.33123c-0.06959,0.81187 -0.22037,1.68174 -0.45233,2.60959h-24.91289z" data-paper-data="{&quot;glyphName&quot;:&quot;l&quot;,&quot;glyphIndex&quot;:1,&quot;word&quot;:1}"></path><path d="M225.72271,217.01122c1.02064,-0.23196 2.02968,-0.39434 3.02712,-0.48712c0.99744,-0.09279 1.96009,-0.13918 2.88795,-0.13918c0.88146,0 1.83251,0.04639 2.85315,0.13918c1.02064,0.09279 2.01808,0.25516 2.99233,0.48712v35.90796c-1.20621,0.18557 -2.29644,0.32475 -3.27069,0.41753c-0.97425,0.09279 -1.85571,0.13918 -2.64438,0.13918c-0.78868,0 -1.67014,-0.04639 -2.64438,-0.13918c-0.97425,-0.09279 -2.04128,-0.23196 -3.2011,-0.41753z" data-paper-data="{&quot;glyphName&quot;:&quot;i&quot;,&quot;glyphIndex&quot;:2,&quot;word&quot;:1}"></path><path d="M252.5261,218.75095c1.62375,-0.55671 3.57224,-1.10183 5.84548,-1.63534c2.27324,-0.53352 5.14959,-0.80027 8.62905,-0.80027c1.9021,0 3.78101,0.15078 5.63672,0.45233c1.85571,0.30155 3.57224,0.91626 5.14959,1.84411c1.20621,-0.60311 2.62119,-1.13662 4.24493,-1.60055c1.62375,-0.46393 3.45626,-0.69589 5.49754,-0.69589c1.80932,0 3.67662,0.17397 5.60192,0.52192c1.9253,0.34795 3.66502,1.07863 5.21918,2.19206c1.55416,1.11343 2.82996,2.71397 3.8274,4.80165c0.99744,2.08767 1.49617,4.84804 1.49617,8.2811v20.80713c-1.20621,0.23196 -2.29644,0.38274 -3.27069,0.45233c-0.97425,0.06959 -1.83251,0.10438 -2.5748,0.10438c-0.78868,0 -1.67014,-0.03479 -2.64438,-0.10438c-0.97425,-0.06959 -2.06448,-0.22037 -3.27069,-0.45233v-19.55453c0,-2.45881 -0.41753,-4.22174 -1.2526,-5.28877c-0.83507,-1.06703 -2.20365,-1.60055 -4.10576,-1.60055c-0.6495,0 -1.2874,0.06959 -1.9137,0.20877c-0.6263,0.13918 -1.05543,0.25516 -1.2874,0.34795c0.41753,1.62375 0.6263,3.47945 0.6263,5.56713v20.32001c-1.20621,0.23196 -2.29644,0.38274 -3.27069,0.45233c-0.97425,0.06959 -1.83251,0.10438 -2.5748,0.10438c-0.78868,0 -1.67014,-0.03479 -2.64438,-0.10438c-0.97425,-0.06959 -2.06448,-0.22037 -3.27069,-0.45233v-19.55453c0,-2.45881 -0.39434,-4.22174 -1.18301,-5.28877c-0.78868,-1.06703 -2.13406,-1.60055 -4.03617,-1.60055c-0.51032,0 -1.05543,0.04639 -1.63534,0.13918c-0.57991,0.09279 -0.93945,0.18557 -1.07863,0.27836v26.02631c-1.20621,0.23196 -2.29644,0.38274 -3.27069,0.45233c-0.97425,0.06959 -1.83251,0.10438 -2.5748,0.10438c-0.78868,0 -1.67014,-0.03479 -2.64438,-0.10438c-0.97425,-0.06959 -2.06448,-0.22037 -3.27069,-0.45233z" data-paper-data="{&quot;glyphName&quot;:&quot;m&quot;,&quot;glyphIndex&quot;:3,&quot;word&quot;:1}"></path><path d="M336.53171,229.67644c-0.04639,-0.83507 -0.27836,-1.53096 -0.69589,-2.08767c-0.41753,-0.55671 -0.95105,-0.98585 -1.60055,-1.2874c-0.6495,-0.30155 -1.36859,-0.51032 -2.15726,-0.6263c-0.78868,-0.11598 -1.60055,-0.17397 -2.43562,-0.17397c-1.11343,0 -2.41242,0.12758 -3.89699,0.38274c-1.48457,0.25516 -3.01553,0.6611 -4.59288,1.21781c-0.41753,-0.78868 -0.77708,-1.50776 -1.07863,-2.15726c-0.30155,-0.6495 -0.53352,-1.31059 -0.69589,-1.98329c-0.16237,-0.67269 -0.27836,-1.36859 -0.34795,-2.08767c-0.06959,-0.71909 -0.10438,-1.54256 -0.10438,-2.47041c2.22685,-0.74228 4.4421,-1.299 6.64576,-1.67014c2.20365,-0.37114 4.18694,-0.55671 5.94987,-0.55671c2.41242,0 4.59288,0.28995 6.54137,0.86986c1.94849,0.57991 3.60703,1.47297 4.97562,2.67918c1.36859,1.20621 2.42402,2.74877 3.1663,4.62767c0.74228,1.87891 1.11343,4.11735 1.11343,6.71535v20.3896c-1.76292,0.51032 -3.89699,1.02064 -6.40219,1.53096c-2.50521,0.51032 -5.14959,0.76548 -7.93315,0.76548c-2.41242,0 -4.62767,-0.22037 -6.64576,-0.6611c-2.01808,-0.44073 -3.74621,-1.14822 -5.18439,-2.12247c-1.43817,-0.97425 -2.5632,-2.26164 -3.37507,-3.86219c-0.81187,-1.60055 -1.21781,-3.56064 -1.21781,-5.88028c0,-2.27324 0.48712,-4.15215 1.46137,-5.63672c0.97425,-1.48457 2.22685,-2.66758 3.75781,-3.54904c1.53096,-0.88146 3.22429,-1.49617 5.08,-1.84411c1.85571,-0.34795 3.66502,-0.52192 5.42795,-0.52192zM336.53171,237.05288h-3.96658c-1.62375,0 -2.99233,0.34795 -4.10576,1.04384c-1.11343,0.69589 -1.67014,1.67014 -1.67014,2.92274c0,0.92785 0.20877,1.65854 0.6263,2.19206c0.41753,0.53352 0.93945,0.93945 1.56575,1.21781c0.6263,0.27836 1.299,0.46393 2.01808,0.55671c0.71909,0.09279 1.38018,0.13918 1.98329,0.13918c0.41753,0 1.02064,-0.04639 1.80932,-0.13918c0.78868,-0.09279 1.36859,-0.18557 1.73973,-0.27836z" data-paper-data="{&quot;glyphName&quot;:&quot;a&quot;,&quot;glyphIndex&quot;:4,&quot;word&quot;:1}"></path><path d="M372.10333,238.72302c0.51032,1.9021 1.40338,3.24749 2.67918,4.03617c1.2758,0.78868 2.95754,1.18301 5.04521,1.18301c1.34539,0 2.85315,-0.16237 4.52329,-0.48712c1.67014,-0.32475 3.31708,-0.81187 4.94082,-1.46137c0.6495,1.20621 1.21781,2.64438 1.70493,4.31452c0.48712,1.67014 0.75388,3.40986 0.80027,5.21918c-4.12895,1.53096 -8.35069,2.29644 -12.66521,2.29644c-3.34028,0 -6.20503,-0.46393 -8.59425,-1.39178c-2.38922,-0.92785 -4.33772,-2.21525 -5.84548,-3.86219c-1.50776,-1.64694 -2.62119,-3.60703 -3.34028,-5.88028c-0.71909,-2.27324 -1.07863,-4.75525 -1.07863,-7.44603c0,-2.64438 0.37114,-5.1264 1.11343,-7.44603c0.74228,-2.31964 1.85571,-4.33772 3.34028,-6.05425c1.48457,-1.71653 3.34028,-3.07352 5.56713,-4.07096c2.22685,-0.99744 4.82484,-1.49617 7.79398,-1.49617c2.45881,0 4.65087,0.41753 6.57617,1.2526c1.9253,0.83507 3.56064,1.98329 4.90603,3.44466c1.34539,1.46137 2.37763,3.22429 3.09671,5.28877c0.71909,2.06448 1.07863,4.30292 1.07863,6.71535c0,1.2526 -0.05799,2.37763 -0.17397,3.37507c-0.11598,0.99744 -0.22037,1.82091 -0.31315,2.47041zM383.0984,230.72027c-0.09279,-1.62375 -0.59151,-2.98073 -1.49617,-4.07096c-0.90466,-1.09023 -2.21525,-1.63534 -3.93178,-1.63534c-1.48457,0 -2.76037,0.46393 -3.8274,1.39178c-1.06703,0.92785 -1.69333,2.36603 -1.87891,4.31452z" data-paper-data="{&quot;glyphName&quot;:&quot;e&quot;,&quot;glyphIndex&quot;:5,&quot;word&quot;:1}"></path><path d="M406.70069,217.1504c1.94849,-0.23196 4.01297,-0.45233 6.19343,-0.6611c2.18046,-0.20877 4.22174,-0.31315 6.12384,-0.31315c3.75781,0 6.97051,0.44073 9.63809,1.32219c2.66758,0.88146 4.85964,2.12247 6.57617,3.72302c1.71653,1.60055 2.96913,3.53744 3.75781,5.81069c0.78868,2.27324 1.18301,4.80165 1.18301,7.58521c0,2.92274 -0.40594,5.56713 -1.21781,7.93315c-0.81187,2.36603 -2.08767,4.38411 -3.8274,6.05425c-1.73973,1.67014 -3.98977,2.95754 -6.75014,3.86219c-2.76037,0.90466 -6.08904,1.35699 -9.98603,1.35699c-2.27324,0 -4.30292,-0.08119 -6.08904,-0.24356c-1.78612,-0.16237 -3.65343,-0.38274 -5.60192,-0.6611zM418.46125,243.87261c0.18557,0 0.42913,0.0232 0.73069,0.06959c0.30155,0.04639 0.75388,0.06959 1.35699,0.06959c2.59799,0 4.53489,-0.73069 5.81069,-2.19206c1.2758,-1.46137 1.9137,-3.86219 1.9137,-7.20247c0,-2.96913 -0.6263,-5.13799 -1.87891,-6.50658c-1.2526,-1.36859 -3.03872,-2.05288 -5.35836,-2.05288c-0.55671,0 -1.06703,0.0232 -1.53096,0.06959c-0.46393,0.04639 -0.81187,0.09279 -1.04384,0.13918z" data-paper-data="{&quot;glyphName&quot;:&quot;d&quot;,&quot;glyphIndex&quot;:6,&quot;word&quot;:1}"></path><path d="M453.1282,217.01122c1.02064,-0.23196 2.02968,-0.39434 3.02712,-0.48712c0.99744,-0.09279 1.96009,-0.13918 2.88795,-0.13918c0.88146,0 1.83251,0.04639 2.85315,0.13918c1.02064,0.09279 2.01808,0.25516 2.99233,0.48712v19.34576c0,2.78356 0.46393,4.68566 1.39178,5.7063c0.92785,1.02064 2.34283,1.53096 4.24493,1.53096c0.78868,0 1.39178,-0.0232 1.80932,-0.06959c0.41753,-0.04639 0.71909,-0.09279 0.90466,-0.13918v-26.37426c1.02064,-0.23196 2.02968,-0.39434 3.02712,-0.48712c0.99744,-0.09279 1.96009,-0.13918 2.88795,-0.13918c0.88146,0 1.83251,0.04639 2.85315,0.13918c1.02064,0.09279 2.01808,0.25516 2.99233,0.48712v34.30741c-0.78868,0.27836 -1.72813,0.55671 -2.81836,0.83507c-1.09023,0.27836 -2.25005,0.54511 -3.47945,0.80027c-1.22941,0.25516 -2.49361,0.45233 -3.7926,0.59151c-1.299,0.13918 -2.5748,0.20877 -3.8274,0.20877c-2.36603,0 -4.63927,-0.18557 -6.81973,-0.55671c-2.18046,-0.37114 -4.09416,-1.12502 -5.7411,-2.26164c-1.64694,-1.13662 -2.95754,-2.78356 -3.93178,-4.94082c-0.97425,-2.15726 -1.46137,-5.04521 -1.46137,-8.66384z" data-paper-data="{&quot;glyphName&quot;:&quot;u&quot;,&quot;glyphIndex&quot;:7,&quot;lastGlyphOfWord&quot;:true,&quot;word&quot;:1}"></path></g><g data-paper-data="{&quot;fillRule&quot;:&quot;evenodd&quot;,&quot;fillRuleOriginal&quot;:&quot;evenodd&quot;,&quot;isIcon&quot;:true,&quot;iconStyle&quot;:&quot;standalone&quot;,&quot;selectedEffects&quot;:{&quot;container&quot;:&quot;&quot;,&quot;transformation&quot;:&quot;rotate0;translate50&quot;,&quot;pattern&quot;:&quot;&quot;},&quot;bounds&quot;:{&quot;x&quot;:65.00000000000003,&quot;y&quot;:200.83421712736327,&quot;width&quot;:67.7611175389168,&quot;height&quot;:68.33156574527345},&quot;iconType&quot;:&quot;icon&quot;,&quot;isDetailed&quot;:false,&quot;source&quot;:&quot;ai&quot;,&quot;rawIconId&quot;:&quot;KPZF_ILi1vxwpu7ph8FQZ1F9BetT-e2IvaGQoU5hgO&quot;,&quot;suitableAsStandaloneIcon&quot;:true}" fill-rule="evenodd"><path d="M75.60283,210.21084c5.40929,-5.13832 11.86302,-8.26685 18.92452,-9.17394c1.84495,-0.23702 5.97887,-0.27385 7.8317,-0.06964c5.99996,0.6609 12.24429,3.20362 17.12479,6.97341c1.54774,1.19556 3.52655,3.01777 3.84619,3.54182c0.50168,0.82269 0.2505,2.35227 -0.46991,2.86069c-2.11601,1.49382 -3.88168,2.62783 -5.35748,3.4406l-1.58083,0.87109l0.39784,1.14629c0.47498,1.36903 0.42854,1.82293 -0.25331,2.47195c-0.41239,0.39264 -0.5971,0.46578 -1.17605,0.46578c-0.93409,0 -1.755,-0.59403 -1.96934,-1.42509c-0.04965,-0.19258 -0.1771,-0.5584 -0.28347,-0.81264l-0.19312,-0.46244l-0.90766,0.28427c-2.54962,0.79823 -5.60572,1.42335 -8.2876,1.69548c-0.90646,0.09209 -1.8575,0.19792 -2.11374,0.23529l-0.46578,0.0682v5.92109c0,5.78763 -0.00667,5.92976 -0.29922,6.30158c-0.6322,0.8037 -1.57936,1.01243 -2.37986,0.52437c-0.99655,-0.60751 -0.97039,-0.43108 -1.01683,-6.90602l-0.04191,-5.83821l-0.60297,-0.07647c-0.33165,-0.04217 -1.44137,-0.17817 -2.46594,-0.30242c-2.3924,-0.28988 -5.09564,-0.81758 -7.03068,-1.37223c-0.84093,-0.24103 -1.5799,-0.3845 -1.64209,-0.3187c-0.21714,0.22902 -1.13561,3.14299 -1.64116,5.20668c-0.47098,1.92249 -0.96785,4.90172 -1.11719,6.69929l-0.06246,0.75231l3.88395,0.0008c2.13616,0.00053 4.11324,0.06459 4.3935,0.1424c0.2804,0.07794 0.69946,0.33952 0.93155,0.58175c0.39157,0.40865 0.42373,0.52557 0.45029,1.64036c0.03256,1.3697 0.29695,2.03967 1.11973,2.83883c1.03044,1.00055 3.28846,1.89874 5.84875,2.32581c1.63796,0.27346 5.10965,0.42587 6.57171,0.28881l1.10171,-0.1033l0.09449,-0.81264c0.67477,-5.80618 4.16636,-11.54416 8.54131,-14.03626c2.23773,-1.27481 5.14355,-1.56348 7.3718,-0.7323c1.17445,0.43802 2.60194,1.86137 3.07452,3.06518c0.47992,1.22223 0.49047,3.45702 0.02269,4.81844c-0.86549,2.51933 -3.14445,5.14408 -6.28277,7.23567c-2.00604,1.337 -5.32145,2.87179 -7.39222,3.42205c-0.92341,0.24543 -0.96118,0.27239 -0.8775,0.62993c0.15842,0.67597 0.8117,1.74139 1.38638,2.26041c2.05462,1.8563 5.50643,1.86657 9.16604,0.02749c2.95253,-1.48368 5.29409,-3.53055 7.41077,-6.47815c0.65275,-0.90886 1.30671,-1.11826 2.25935,-0.72349c1.17245,0.48593 1.63208,1.61687 1.08917,2.67908c-0.4252,0.83172 -2.0007,2.73099 -3.31088,3.99192c-1.5799,1.52011 -3.2368,2.76276 -4.88224,3.66121c-4.60757,2.51612 -9.27787,2.94373 -12.68257,1.1615c-1.36463,-0.71428 -3.06451,-2.48596 -3.79547,-3.95536c-0.32524,-0.65342 -0.6322,-1.4064 -0.68211,-1.67346l-0.09115,-0.48539l-2.3146,0.08168c-6.31399,0.22288 -11.69443,-1.23757 -14.35549,-3.89676c-1.09544,-1.09464 -1.67305,-2.0402 -1.98055,-3.24241l-0.19779,-0.773l-2.95841,-0.0387l-2.95867,-0.03884l0.08608,1.04192c0.15588,1.89059 0.63901,5.02584 1.055,6.84543c0.54051,2.36411 1.54854,5.44544 1.78169,5.44544c0.10023,0 0.66103,-0.16349 1.24625,-0.36341c3.9982,-1.36556 8.80262,-2.0402 13.38524,-1.87965c3.04636,0.10663 3.25602,0.14467 3.80174,0.69039c0.76966,0.76966 0.74244,1.84041 -0.0674,2.65025c-0.46858,0.46858 -0.50501,0.47872 -1.71122,0.47872h-1.23237v12.34318l0.32244,-0.08969c0.68131,-0.18951 2.36852,-1.11079 3.26016,-1.78009c2.08985,-1.56922 4.48799,-4.39297 6.0009,-7.06617c0.61659,-1.08943 1.03151,-1.4012 1.86404,-1.40053c1.30484,0.00107 2.22838,1.04353 1.89767,2.14217c-0.42013,1.39572 -2.75875,4.83286 -4.64241,6.82328l-1.28175,1.35435l1.2692,-0.44002c3.11456,-1.08023 7.11328,-3.4757 9.70228,-5.81218c2.15058,-1.94118 2.25868,-1.98949 3.34384,-1.49689c0.71094,0.32284 1.04846,0.88818 1.04846,1.75647c0,0.58335 -0.06286,0.67691 -1.18459,1.76634c-2.72726,2.64865 -6.94326,5.37056 -10.49436,6.77523c-4.64214,1.83601 -8.45469,2.59927 -13.01008,2.60474c-6.29398,0.00734 -11.79747,-1.52411 -17.40719,-4.8438c-2.34836,-1.38972 -4.09981,-2.77437 -6.26981,-4.95697c-2.912,-2.92891 -4.8573,-5.67646 -6.59854,-9.31978c-2.03172,-4.2511 -2.95357,-7.67849 -3.37473,-12.54644c-0.85837,-9.92449 3.12824,-20.29713 10.48772,-27.2879zM113.73879,213.66581c-1.35382,-2.53355 -2.47595,-4.1272 -4.58635,-6.51272l-1.04753,-1.18408l0.90379,0.34091c3.5132,1.32481 6.80046,3.23873 9.36329,5.45143l0.8125,0.70145l-0.85868,0.54597c-1.0881,0.69171 -3.51574,1.99182 -3.7194,1.99182c-0.08501,0 -0.47525,-0.6007 -0.86762,-1.33479zM89.13556,212.4929c2.16392,-3.02263 4.78027,-5.32819 7.0918,-6.24976c0.3546,-0.14129 0.66103,-0.25994 0.68065,-0.26368c0.01962,-0.00372 0.03577,2.7988 0.03577,6.22783v6.23457l-1.03885,-0.08541c-2.90449,-0.23903 -8.6326,-1.36263 -9.04418,-1.77422c-0.17163,-0.17163 1.07649,-2.41573 2.27483,-4.08934zM79.47119,211.67078c2.15885,-1.96178 6.245,-4.39631 8.94623,-5.33006c0.55172,-0.19058 1.06541,-0.35151 1.14162,-0.35739c0.07607,-0.00587 -0.18898,0.32802 -0.58883,0.74173c-1.7869,1.84871 -4.19905,5.22229 -5.2255,7.30831c-0.26185,0.53188 -0.52877,0.96723 -0.59323,0.96723c-0.18684,0 -1.48941,-0.67984 -3.10708,-1.6221l-1.49449,-0.87041zM100.74125,218.3682l-0.03737,-6.12607c-0.0331,-5.43553 -0.01241,-6.1261 0.18324,-6.1261c0.28387,0 1.81693,0.77181 2.64851,1.33341c1.19941,0.81007 2.78971,2.23119 3.7258,3.32929c1.61153,1.89085 3.90237,5.54352 3.63492,5.79629c-0.51863,0.4906 -6.63443,1.6553 -9.22369,1.7566zM68.78432,232.01942c0.61533,-5.56235 2.88865,-11.27137 6.27769,-15.76483c0.40125,-0.53197 0.7777,-0.96732 0.83659,-0.96732c0.05889,0 0.69056,0.37729 1.40348,0.8384c0.71306,0.46124 1.97706,1.18659 2.80879,1.6122c1.27401,0.65168 1.50143,0.81878 1.44297,1.06021c-0.03817,0.15762 -0.39064,1.2983 -0.78328,2.53467c-1.05807,3.33183 -1.75193,6.85851 -1.9963,10.1475l-0.10116,1.36129l-4.99409,0.03764l-4.99386,0.03777zM111.30448,238.01858c0.94557,-3.82056 3.52455,-7.43759 6.29064,-8.82197c0.96852,-0.48486 1.30604,-0.58242 2.01378,-0.58242c0.96812,0 1.49836,0.22528 2.03713,0.86562c0.30989,0.36835 0.37529,0.59003 0.37529,1.27201c0,1.16697 -0.61872,2.34222 -1.98815,3.77545c-1.38718,1.45191 -2.58912,2.34503 -4.46037,3.31421c-1.48167,0.76726 -4.41299,1.88379 -4.5602,1.73658c-0.04137,-0.04137 0.08995,-0.74311 0.29188,-1.55948zM69.43017,241.84408c-0.2985,-1.3693 -0.70804,-4.08962 -0.71364,-4.7393l-0.00287,-0.32244h4.94387c4.61226,0 4.94404,0.01668 4.94537,0.25077c0.00093,0.13787 0.09622,1.14322 0.21193,2.23412c0.44642,4.20573 1.11306,7.39195 2.21584,10.58965c0.31897,0.92528 0.58002,1.73805 0.58002,1.80625c0,0.0682 -0.59657,0.46204 -1.32553,0.87523c-0.72896,0.41292 -1.96593,1.17498 -2.7485,1.69347l-1.42298,0.94276l-0.44079,-0.50982c-2.75695,-3.18943 -5.26743,-8.34512 -6.24273,-12.82071zM86.73542,253.67504c0.36608,-0.34286 4.86862,-1.44991 7.19149,-1.76808c0.75285,-0.10316 1.73965,-0.19525 2.19288,-0.20459l0.82398,-0.01682l0.0016,5.4812c0.00093,3.01473 0.03537,5.70688 0.07687,5.98275c0.14133,0.94196 -0.04938,0.97266 -1.53292,0.2461c-2.14951,-1.05247 -4.37135,-3.00699 -6.31172,-5.55234c-0.98533,-1.29269 -2.58939,-4.03036 -2.44218,-4.16823zM78.88797,257.98153c0,-0.11731 0.94249,-0.76019 2.83869,-1.9361c0.68492,-0.42494 1.31258,-0.77353 1.39466,-0.775c0.08221,-0.0012 0.32324,0.35233 0.53584,0.78581c1.06408,2.16979 2.81761,4.61478 4.78881,6.67767c0.77247,0.80837 1.27548,1.42015 1.11786,1.35956c-0.15762,-0.06059 -0.83466,-0.30442 -1.50463,-0.54172c-1.45311,-0.51489 -3.80361,-1.69494 -5.51043,-2.76649c-1.30484,-0.81918 -3.66081,-2.62356 -3.66081,-2.80373z" data-paper-data="{&quot;isPathIcon&quot;:true}"></path></g></g></g></svg>
